HIERARCHY
ROOT Hips
{
	OFFSET 0.000000 97.167313 0.000000
	CHANNELS 6 Xposition Yposition Zposition Xrotation Yrotation Zrotation
	JOINT Spine
	{
		OFFSET 0.000000 13.784798 0.064400
		CHANNELS 3 Xrotation Yrotation Zrotation
		JOINT Spine1
		{
			OFFSET 0.000000 12.037903 0.404700
			CHANNELS 3 Xrotation Yrotation Zrotation
			JOINT Spine2
			{
				OFFSET 0.000000 17.795601 0.420200
				CHANNELS 3 Xrotation Yrotation Zrotation
				JOINT Neck
				{
					OFFSET 0.000000 39.131302 11.954600
					CHANNELS 3 Xrotation Yrotation Zrotation
					JOINT Head
					{
						OFFSET 0.000000 14.456192 15.627699
						CHANNELS 3 Xrotation Yrotation Zrotation
						JOINT HeadTop_End
						{
							OFFSET 0.000000 15.703506 7.603401
							CHANNELS 3 Xrotation Yrotation Zrotation
							End Site
							{
								OFFSET 0.000000 17.447403 0.000000
							}
						}
					}
				}
				JOINT LeftShoulder
				{
					OFFSET 17.399500 24.608795 1.168800
					CHANNELS 3 Xrotation Yrotation Zrotation
					JOINT LeftArm
					{
						OFFSET 18.980635 5.765305 1.818600
						CHANNELS 3 Xrotation Yrotation Zrotation
						JOINT LeftForeArm
						{
							OFFSET 49.290169 0.000000 0.000000
							CHANNELS 3 Xrotation Yrotation Zrotation
							JOINT LeftHand
							{
								OFFSET 31.562012 0.000000 0.000000
								CHANNELS 3 Xrotation Yrotation Zrotation
								JOINT LeftHandThumb1
								{
									OFFSET 6.133995 -4.388519 7.076070
									CHANNELS 3 Xrotation Yrotation Zrotation
									JOINT LeftHandThumb2
									{
										OFFSET 6.037666 -3.485840 3.485847
										CHANNELS 3 Xrotation Yrotation Zrotation
										JOINT LeftHandThumb3
										{
											OFFSET 6.496506 -3.750763 3.750761
											CHANNELS 3 Xrotation Yrotation Zrotation
											JOINT LeftHandThumb4
											{
												OFFSET 5.616882 -3.242905 3.242910
												CHANNELS 3 Xrotation Yrotation Zrotation
												End Site
												{
													OFFSET -1.254608 7.132141 0.375429
												}
											}
										}
									}
								}
								JOINT LeftHandPinky1
								{
									OFFSET 18.920792 -0.453171 -11.426712
									CHANNELS 3 Xrotation Yrotation Zrotation
									JOINT LeftHandPinky2
									{
										OFFSET 4.919586 0.000000 0.000000
										CHANNELS 3 Xrotation Yrotation Zrotation
										JOINT LeftHandPinky3
										{
											OFFSET 5.233047 0.000000 0.000000
											CHANNELS 3 Xrotation Yrotation Zrotation
											JOINT LeftHandPinky4
											{
												OFFSET 5.571716 0.000000 0.000000
												CHANNELS 3 Xrotation Yrotation Zrotation
												End Site
												{
													OFFSET -3.459808 4.342407 -0.466164
												}
											}
										}
									}
								}
								JOINT LeftHandRing1
								{
									OFFSET 22.726120 -0.094986 -6.500475
									CHANNELS 3 Xrotation Yrotation Zrotation
									JOINT LeftHandRing2
									{
										OFFSET 6.408615 0.000000 0.000000
										CHANNELS 3 Xrotation Yrotation Zrotation
										JOINT LeftHandRing3
										{
											OFFSET 6.150223 0.000000 0.000000
											CHANNELS 3 Xrotation Yrotation Zrotation
											JOINT LeftHandRing4
											{
												OFFSET 6.145386 0.000000 0.000000
												CHANNELS 3 Xrotation Yrotation Zrotation
												End Site
												{
													OFFSET -3.671402 4.923981 -0.202372
												}
											}
										}
									}
								}
								JOINT LeftHandMiddle1
								{
									OFFSET 23.373947 0.000000 0.000001
									CHANNELS 3 Xrotation Yrotation Zrotation
									JOINT LeftHandMiddle2
									{
										OFFSET 6.996567 0.000000 0.000000
										CHANNELS 3 Xrotation Yrotation Zrotation
										JOINT LeftHandMiddle3
										{
											OFFSET 7.015945 0.000000 0.000000
											CHANNELS 3 Xrotation Yrotation Zrotation
											JOINT LeftHandMiddle4
											{
												OFFSET 7.721573 0.000000 0.000000
												CHANNELS 3 Xrotation Yrotation Zrotation
												End Site
												{
													OFFSET -4.651108 6.158463 0.251582
												}
											}
										}
									}
								}
								JOINT LeftHandIndex1
								{
									OFFSET 21.310577 -0.490082 6.209344
									CHANNELS 3 Xrotation Yrotation Zrotation
									JOINT LeftHandIndex2
									{
										OFFSET 7.536453 0.000000 0.000000
										CHANNELS 3 Xrotation Yrotation Zrotation
										JOINT LeftHandIndex3
										{
											OFFSET 7.512344 0.000000 0.000000
											CHANNELS 3 Xrotation Yrotation Zrotation
											JOINT LeftHandIndex4
											{
												OFFSET 10.212402 0.000000 0.000001
												CHANNELS 3 Xrotation Yrotation Zrotation
												End Site
												{
													OFFSET -5.180801 8.690506 1.388433
												}
											}
										}
									}
								}
							}
						}
					}
				}
				JOINT RightShoulder
				{
					OFFSET -17.399500 24.608795 1.168800
					CHANNELS 3 Xrotation Yrotation Zrotation
					JOINT RightArm
					{
						OFFSET -18.980635 5.765305 1.818600
						CHANNELS 3 Xrotation Yrotation Zrotation
						JOINT RightForeArm
						{
							OFFSET -49.290169 0.000000 0.000000
							CHANNELS 3 Xrotation Yrotation Zrotation
							JOINT RightHand
							{
								OFFSET -31.562012 0.000000 0.000000
								CHANNELS 3 Xrotation Yrotation Zrotation
								JOINT RightHandThumb1
								{
									OFFSET -6.133995 -4.388519 7.076070
									CHANNELS 3 Xrotation Yrotation Zrotation
									JOINT RightHandThumb2
									{
										OFFSET -6.037666 -3.485840 3.485847
										CHANNELS 3 Xrotation Yrotation Zrotation
										JOINT RightHandThumb3
										{
											OFFSET -6.496506 -3.750763 3.750761
											CHANNELS 3 Xrotation Yrotation Zrotation
											JOINT RightHandThumb4
											{
												OFFSET -5.616882 -3.242905 3.242910
												CHANNELS 3 Xrotation Yrotation Zrotation
												End Site
												{
													OFFSET 1.254608 7.132141 0.375429
												}
											}
										}
									}
								}
								JOINT RightHandIndex1
								{
									OFFSET -21.310577 -0.490082 6.209344
									CHANNELS 3 Xrotation Yrotation Zrotation
									JOINT RightHandIndex2
									{
										OFFSET -7.536453 0.000000 0.000000
										CHANNELS 3 Xrotation Yrotation Zrotation
										JOINT RightHandIndex3
										{
											OFFSET -7.512344 0.000000 0.000000
											CHANNELS 3 Xrotation Yrotation Zrotation
											JOINT RightHandIndex4
											{
												OFFSET -10.212402 0.000000 0.000001
												CHANNELS 3 Xrotation Yrotation Zrotation
												End Site
												{
													OFFSET 5.180801 8.690506 1.388433
												}
											}
										}
									}
								}
								JOINT RightHandMiddle1
								{
									OFFSET -23.373947 0.000000 0.000001
									CHANNELS 3 Xrotation Yrotation Zrotation
									JOINT RightHandMiddle2
									{
										OFFSET -6.996567 0.000000 0.000000
										CHANNELS 3 Xrotation Yrotation Zrotation
										JOINT RightHandMiddle3
										{
											OFFSET -7.015945 0.000000 0.000000
											CHANNELS 3 Xrotation Yrotation Zrotation
											JOINT RightHandMiddle4
											{
												OFFSET -7.721573 0.000000 0.000000
												CHANNELS 3 Xrotation Yrotation Zrotation
												End Site
												{
													OFFSET 4.651108 6.158463 0.251582
												}
											}
										}
									}
								}
								JOINT RightHandRing1
								{
									OFFSET -22.726120 -0.094986 -6.500475
									CHANNELS 3 Xrotation Yrotation Zrotation
									JOINT RightHandRing2
									{
										OFFSET -6.408615 0.000000 0.000000
										CHANNELS 3 Xrotation Yrotation Zrotation
										JOINT RightHandRing3
										{
											OFFSET -6.150223 0.000000 0.000000
											CHANNELS 3 Xrotation Yrotation Zrotation
											JOINT RightHandRing4
											{
												OFFSET -6.145386 0.000000 0.000000
												CHANNELS 3 Xrotation Yrotation Zrotation
												End Site
												{
													OFFSET 3.671402 4.923981 -0.202372
												}
											}
										}
									}
								}
								JOINT RightHandPinky1
								{
									OFFSET -18.920792 -0.453171 -11.426712
									CHANNELS 3 Xrotation Yrotation Zrotation
									JOINT RightHandPinky2
									{
										OFFSET -4.919586 0.000000 0.000000
										CHANNELS 3 Xrotation Yrotation Zrotation
										JOINT RightHandPinky3
										{
											OFFSET -5.233047 0.000000 0.000000
											CHANNELS 3 Xrotation Yrotation Zrotation
											JOINT RightHandPinky4
											{
												OFFSET -5.571716 0.000000 0.000000
												CHANNELS 3 Xrotation Yrotation Zrotation
												End Site
												{
													OFFSET 3.459808 4.342407 -0.466164
												}
											}
										}
									}
								}
							}
						}
					}
				}
			}
		}
	}
	JOINT LeftUpLeg
	{
		OFFSET 19.899099 -7.885101 -3.429500
		CHANNELS 3 Xrotation Yrotation Zrotation
		JOINT LeftLeg
		{
			OFFSET 1.745560 -36.997807 10.304700
			CHANNELS 3 Xrotation Yrotation Zrotation
			JOINT LeftFoot
			{
				OFFSET -1.745558 -29.803308 -13.615400
				CHANNELS 3 Xrotation Yrotation Zrotation
				JOINT LeftToeBase
				{
					OFFSET 1.181900 -18.539904 15.226099
					CHANNELS 3 Xrotation Yrotation Zrotation
					JOINT LeftToe_End
					{
						OFFSET -0.863701 1.402801 16.534700
						CHANNELS 3 Xrotation Yrotation Zrotation
						End Site
						{
							OFFSET 0.000000 16.616566 0.000000
						}
					}
				}
			}
		}
	}
	JOINT RightUpLeg
	{
		OFFSET -19.899099 -7.885101 -3.429500
		CHANNELS 3 Xrotation Yrotation Zrotation
		JOINT RightLeg
		{
			OFFSET -1.745560 -36.997807 10.304700
			CHANNELS 3 Xrotation Yrotation Zrotation
			JOINT RightFoot
			{
				OFFSET 1.745558 -29.803308 -13.615400
				CHANNELS 3 Xrotation Yrotation Zrotation
				JOINT RightToeBase
				{
					OFFSET -1.181900 -18.539904 15.226099
					CHANNELS 3 Xrotation Yrotation Zrotation
					JOINT RightToe_End
					{
						OFFSET 0.863701 1.402801 16.534700
						CHANNELS 3 Xrotation Yrotation Zrotation
						End Site
						{
							OFFSET 0.000000 16.616566 0.000000
						}
					}
				}
			}
		}
	}
}
MOTION
Frames: 4
Frame Time: 0.033333
-0.359644 92.291870 1.738782 -3.661225 3.328547 2.223160 4.353016 -0.765884 -0.562311 1.013959 -0.170730 0.054478 1.013874 -0.177046 0.069539 0.942216 -0.544783 0.126543 -6.488562 -5.987211 -1.414549 0.000000 -0.000000 -0.000000 0.674922 -2.078744 -16.856786 4.778425 -6.136924 -37.933870 0.000058 -66.118950 0.000073 -4.833215 -7.576986 -60.543043 -7.220050 -16.942342 15.004589 8.348823 0.689827 4.880215 -0.062030 -18.560325 11.893769 0.000000 -0.000000 0.000003 9.161896 25.681021 -47.169860 0.954729 3.207159 -33.147830 0.495751 2.360477 -23.718810 -0.000000 -0.000001 -0.000006 6.496564 12.626995 -37.570832 1.949515 4.363730 -48.129106 0.031847 0.610640 -5.969656 0.000004 0.000001 0.000005 0.805739 5.211340 -29.108808 1.066664 3.372089 -35.098153 0.556046 2.493069 -25.142710 -0.000001 0.000003 0.000007 -0.978091 -1.241631 -15.183673 1.002393 3.278827 -33.989692 0.129187 1.224849 -12.042758 -0.000002 0.000001 0.000001 0.088522 8.205037 21.087104 -3.899877 6.709552 55.252583 0.000002 9.850087 -0.000003 33.602407 9.190941 0.661873 9.076637 11.156498 -7.011577 22.190752 -26.308839 10.011999 6.596493 -21.950684 -17.823652 0.000000 0.000000 -0.000001 3.041026 7.562646 51.714634 1.573271 -3.491488 48.501901 0.436166 -1.969598 24.970801 -0.000001 -0.000007 -0.000002 -3.185426 -4.004866 67.076843 1.304820 -3.234634 43.928290 0.443931 -1.986191 25.195656 -0.000000 -0.000000 -0.000004 -4.626527 -1.781861 57.138286 2.278830 -4.005227 59.262758 1.035944 -2.930416 38.931440 0.000002 0.000001 -0.000003 -7.034701 -9.338173 44.934209 1.908685 -3.761101 53.801643 2.442839 -4.098105 61.583847 0.000000 0.000000 0.000007 -0.356773 8.103940 5.208823 16.073481 2.713632 0.102579 -11.249354 1.740178 -5.424559 -0.999557 -0.000006 0.000003 0.000000 0.000001 0.000000 -0.091210 -11.814885 -11.992603 18.463244 -3.270356 -0.509243 -13.323706 -3.799814 10.635813 -2.518102 0.000000 -0.000003 -0.000000 -0.000002 -0.000000 
-0.345039 92.297310 1.772244 -3.667048 3.506482 2.277864 4.243800 -0.699435 -0.588269 0.993090 -0.154234 0.054478 0.993004 -0.161421 0.069539 0.993620 -0.171604 0.051404 -6.089674 -5.592143 -1.285595 -0.000000 0.000000 0.000000 0.669284 -2.097340 -16.856984 4.776130 -6.115301 -37.967748 0.000064 -66.105248 0.000053 -4.795303 -7.620688 -60.578601 -7.220048 -16.942344 15.004587 8.343773 0.679839 4.884432 -0.062020 -18.560313 11.893772 0.000001 -0.000000 0.000001 9.181756 25.678443 -47.219990 0.954742 3.207178 -33.147810 0.495749 2.360465 -23.718831 -0.000001 0.000003 -0.000004 6.508811 12.626309 -37.639417 1.946225 4.360806 -48.085662 0.032040 0.612415 -5.987215 0.000000 -0.000001 0.000003 0.810367 5.219598 -29.201579 1.066670 3.372089 -35.098153 0.555256 2.491396 -25.124639 0.000002 -0.000002 0.000004 -0.987272 -1.223920 -15.330083 0.996338 3.269888 -33.884230 0.129201 1.224846 -12.042747 0.000003 -0.000003 0.000003 0.288255 8.054239 20.313290 -4.008391 6.518860 55.627168 0.000006 9.463821 -0.000013 33.489575 9.471063 1.838435 7.972947 11.044960 -8.116751 22.324050 -26.238132 10.469545 6.488853 -20.386346 -17.437531 0.000001 0.000002 0.000002 3.024029 7.283630 50.293569 1.491114 -3.417182 47.138479 0.428090 -1.952178 24.734671 -0.000001 -0.000001 0.000001 -3.452775 -3.715143 65.737053 1.275069 -3.203517 43.398578 0.438255 -1.974096 25.031509 0.000001 0.000000 -0.000004 -5.217663 -1.713539 58.887084 2.144035 -3.922155 57.312978 0.999424 -2.884678 38.211278 -0.000004 -0.000001 -0.000002 -7.711650 -8.515085 48.478518 1.703799 -3.602534 50.611531 2.078042 -3.879117 56.343047 0.000003 0.000002 0.000001 -0.368883 8.132494 5.150427 16.038273 2.608309 0.050167 -11.208549 1.718182 -5.284174 -0.919572 0.000007 0.000002 0.000000 -0.000000 -0.000000 0.041062 -11.819633 -12.046078 18.440181 -3.426611 -0.499175 -13.392422 -3.847673 10.710244 -2.518102 -0.000001 -0.000003 0.000000 -0.000002 -0.000000 
-0.320228 92.310547 1.809562 -3.680205 3.718321 2.359842 4.136713 -0.636912 -0.601553 0.973502 -0.135124 0.054478 0.973426 -0.142599 0.063642 1.049472 0.229842 -0.024775 -5.607309 -5.052334 -1.113998 0.000000 0.000000 -0.000000 0.674783 -2.075989 -16.886591 4.763882 -6.120302 -37.993262 0.000052 -66.070667 0.000038 -4.801420 -7.648581 -60.604842 -7.220050 -16.942339 15.004589 8.318184 0.616268 4.903012 -0.059590 -18.561505 11.904413 -0.000001 0.000001 0.000004 9.169857 25.680005 -47.189992 0.954745 3.207182 -33.147810 0.495257 2.359345 -23.706738 -0.000000 0.000000 -0.000002 6.506824 12.626426 -37.628349 1.944993 4.359687 -48.069297 0.031860 0.610724 -5.970726 -0.000003 0.000001 0.000002 0.809711 5.218475 -29.188591 1.066675 3.372075 -35.098150 0.554742 2.490298 -25.112712 -0.000004 0.000002 0.000009 -0.986156 -1.226072 -15.312169 0.997849 3.272117 -33.910462 0.129394 1.225783 -12.052172 -0.000001 0.000003 0.000001 0.496742 7.917474 19.494024 -4.102379 6.374797 55.961389 0.000001 9.187386 0.000022 33.427680 9.942662 3.036232 6.798108 10.868258 -9.391687 22.496794 -26.157205 11.051472 6.304026 -18.518328 -17.076415 0.000001 -0.000002 0.000006 2.991398 6.988229 48.837782 1.408902 -3.339141 45.743430 0.423060 -1.941245 24.586524 0.000000 -0.000001 -0.000001 -3.747462 -3.396090 64.399627 1.243939 -3.170330 42.838448 0.431393 -1.959342 24.831523 0.000001 0.000001 0.000001 -5.829312 -1.746463 61.000221 1.998238 -3.824885 55.155000 0.961847 -2.836375 37.458567 -0.000002 -0.000003 0.000002 -8.506069 -7.806764 52.630654 1.479434 -3.406326 46.942517 1.692337 -3.593124 50.429015 0.000001 -0.000000 0.000002 -0.349383 8.133103 5.040706 15.946106 2.512398 0.027674 -11.133012 1.693289 -5.171190 -0.902879 0.000003 -0.000001 0.000000 0.000002 0.000000 0.203563 -11.827691 -12.131635 18.405207 -3.603023 -0.488190 -13.466961 -3.915528 10.802595 -2.518102 -0.000001 -0.000003 0.000000 -0.000001 -0.000000 
-0.292253 92.324341 1.856465 -3.707458 3.963400 2.442320 4.020775 -0.576349 -0.602679 0.952045 -0.118682 0.054478 0.951978 -0.126079 0.058449 1.115016 0.642656 -0.104923 -5.058708 -4.538005 -0.906693 -0.000000 -0.000000 0.000000 0.674335 -2.062279 -16.938406 4.733433 -6.075014 -38.009012 -0.000017 -66.063523 -0.000032 -4.789409 -7.698949 -60.642477 -7.220044 -16.942335 15.004590 8.296475 0.558049 4.918516 -0.055162 -18.569054 11.926444 0.000001 -0.000000 -0.000001 9.168312 25.680202 -47.186065 0.954741 3.207178 -33.147803 0.494748 2.358183 -23.694341 -0.000000 0.000004 -0.000005 6.505408 12.626506 -37.620433 1.946829 4.361341 -48.093633 0.031886 0.610984 -5.973254 0.000001 0.000001 0.000002 0.806519 5.212790 -29.124797 1.066671 3.372089 -35.098139 0.554046 2.488808 -25.096729 -0.000004 0.000000 0.000009 -0.981513 -1.235024 -15.238152 0.999590 3.274687 -33.940716 0.129749 1.227401 -12.068434 -0.000003 0.000003 0.000001 0.722519 7.728450 18.567234 -4.161882 6.358282 56.391500 0.000001 9.076878 -0.000009 33.370556 10.288320 3.707376 5.555518 10.636613 -10.785499 22.704450 -26.073462 11.735966 6.053758 -16.402090 -16.740756 0.000001 0.000002 -0.000001 2.939959 6.666955 47.355710 1.327265 -3.257739 44.324677 0.420775 -1.936232 24.519203 -0.000003 0.000002 0.000001 -4.051831 -3.054636 63.072139 1.212959 -3.136637 42.275470 0.424019 -1.943344 24.615042 0.000001 -0.000001 -0.000001 -6.409527 -1.898614 63.374183 1.846404 -3.714810 52.846034 0.924178 -2.786566 36.690345 0.000002 0.000003 -0.000003 -9.359090 -7.289133 57.218687 1.248933 -3.175689 42.928798 1.310161 -3.240172 44.022902 0.000002 -0.000001 0.000004 -0.318754 8.118285 4.929905 15.852765 2.417850 0.015550 -11.055603 1.657051 -5.079497 -0.882960 -0.000002 -0.000000 -0.000000 -0.000000 0.000000 0.414466 -11.834124 -12.213388 18.354153 -3.803822 -0.472856 -13.550166 -3.995727 10.905657 -2.518103 0.000000 -0.000003 -0.000000 0.000000 -0.000000 
